<?xml version="1.0" encoding="UTF-8"?>
<svg id="Layer_1" xmlns="http://www.w3.org/2000/svg" version="1.1" viewBox="0 0 841.9 595.3">
  <!-- Generator: Adobe Illustrator 29.0.1, SVG Export Plug-In . SVG Version: 2.1.0 Build 192)  -->
  <defs>
    <style>
      .st0 {
        fill: #fff;
      }

      .st1 {
        fill: #9b1c23;
      }
    </style>
  </defs>
  <g>
    <g>
      <path class="st0" d="M315.3,341.1c-2.1-1.1-4.6-1.6-7.3-1.6h-10.9v25.1h10.9c2.8,0,5.2-.5,7.3-1.6,2.1-1.1,3.8-2.5,4.9-4.4,1.2-1.9,1.8-4.1,1.8-6.6s-.6-4.7-1.8-6.6c-1.2-1.9-2.8-3.4-4.9-4.4h0ZM317,357c-.9,1.4-2.1,2.5-3.7,3.3s-3.4,1.2-5.6,1.2h-7v-18.9h7c2.1,0,4,.4,5.6,1.2,1.6.8,2.8,1.9,3.7,3.3.9,1.4,1.3,3.1,1.3,5s-.4,3.5-1.3,4.9Z"/>
      <polygon class="st0" points="347.8 353.4 360.8 353.4 360.8 350.3 347.8 350.3 347.8 342.6 362.4 342.6 362.4 339.5 344.1 339.5 344.1 364.6 362.9 364.6 362.9 361.5 347.8 361.5 347.8 353.4"/>
      <polygon class="st0" points="394.4 360.1 385.1 339.5 381.1 339.5 392.5 364.6 396.2 364.6 407.5 339.5 403.8 339.5 394.4 360.1"/>
      <polygon class="st0" points="431 353.4 444 353.4 444 350.3 431 350.3 431 342.6 445.6 342.6 445.6 339.5 427.3 339.5 427.3 364.6 446.1 364.6 446.1 361.5 431 361.5 431 353.4"/>
      <polygon class="st0" points="472.2 339.5 468.5 339.5 468.5 364.6 486.3 364.6 486.3 361.5 472.2 361.5 472.2 339.5"/>
      <path class="st0" d="M528,342.9c-1.2-1.2-2.7-2.1-4.4-2.7s-3.5-1-5.5-1-3.8.3-5.5,1c-1.7.6-3.1,1.5-4.4,2.7-1.2,1.2-2.2,2.5-2.9,4.1-.7,1.6-1,3.3-1,5.1s.3,3.5,1,5.1,1.7,2.9,2.9,4.1c1.2,1.2,2.7,2.1,4.4,2.7,1.7.6,3.5,1,5.5,1s3.8-.3,5.5-1c1.7-.6,3.1-1.5,4.4-2.7,1.2-1.2,2.2-2.5,2.9-4.1s1-3.3,1-5.1-.3-3.5-1-5.1-1.6-2.9-2.9-4.1ZM527.5,355.9c-.5,1.2-1.2,2.2-2.1,3.1-.9.9-2,1.5-3.2,2s-2.6.7-4,.7-2.8-.2-4-.7-2.3-1.2-3.2-2c-.9-.9-1.6-1.9-2.1-3.1s-.8-2.5-.8-3.8.3-2.7.8-3.8c.5-1.2,1.2-2.2,2.1-3.1s2-1.6,3.2-2c1.2-.5,2.6-.7,4-.7s2.8.2,4,.7,2.3,1.2,3.2,2c.9.9,1.6,1.9,2.1,3.1s.8,2.4.8,3.8-.3,2.7-.8,3.8Z"/>
      <path class="st0" d="M570,340.5c-1.6-.7-3.5-1-5.8-1h-10.1v25.1h3.7v-7.6h6.4c2.3,0,4.2-.4,5.8-1.1s2.8-1.7,3.7-3,1.3-2.9,1.3-4.7-.4-3.4-1.3-4.7c-.9-1.3-2.1-2.3-3.7-3h0ZM569.4,352.4c-1.2,1-3,1.5-5.4,1.5h-6.3v-11.3h6.3c2.4,0,4.2.5,5.4,1.5s1.8,2.4,1.8,4.2-.6,3.2-1.8,4.2h0Z"/>
      <polygon class="st0" points="621.4 339.5 610.7 357.1 599.9 339.5 596.9 339.5 596.9 364.6 600.4 364.6 600.4 346.4 609.8 361.6 611.5 361.6 620.9 346.3 620.9 364.6 624.5 364.6 624.4 339.5 621.4 339.5"/>
      <polygon class="st0" points="652.4 353.4 665.4 353.4 665.4 350.3 652.4 350.3 652.4 342.6 667 342.6 667 339.5 648.7 339.5 648.7 364.6 667.5 364.6 667.5 361.5 652.4 361.5 652.4 353.4"/>
      <polygon class="st0" points="708.5 358.2 693 339.5 689.9 339.5 689.9 364.6 693.6 364.6 693.6 345.9 709.2 364.6 712.2 364.6 712.2 339.5 708.5 339.5 708.5 358.2"/>
      <polygon class="st0" points="732.7 342.6 741.6 342.6 741.6 364.6 745.3 364.6 745.3 342.6 754.2 342.6 754.2 339.5 732.7 339.5 732.7 342.6"/>
      <path class="st0" d="M791.1,354.5c-.6-.8-1.3-1.5-2.2-2s-2-.9-3.1-1.2c-1.1-.3-2.2-.6-3.4-.8-1.1-.3-2.1-.5-3.1-.8-.9-.3-1.7-.7-2.3-1.3s-.9-1.2-.9-2.1.2-1.4.6-2c.4-.6,1.1-1.1,2.1-1.4s2.1-.5,3.6-.5,2.4.2,3.6.5c1.2.3,2.4.8,3.5,1.6l1.2-2.9c-1.1-.7-2.4-1.3-3.9-1.6-1.5-.4-3-.6-4.5-.6-2.3,0-4.1.3-5.6,1s-2.6,1.5-3.3,2.6-1.1,2.3-1.1,3.6.3,2.4.9,3.3c.6.8,1.3,1.5,2.2,2s2,.9,3.1,1.2c1.1.3,2.2.6,3.4.8,1.1.2,2.1.5,3.1.8.9.3,1.7.7,2.3,1.3.6.5.9,1.2.9,2.1s-.2,1.4-.7,2c-.4.6-1.1,1-2.1,1.4-.9.3-2.2.5-3.7.5s-3.3-.3-4.8-.8c-1.5-.6-2.8-1.2-3.8-2.1l-1.4,2.8c1,.9,2.5,1.7,4.3,2.3,1.8.6,3.7.9,5.7.9s4.2-.3,5.7-1,2.6-1.5,3.3-2.6,1.1-2.3,1.1-3.5-.3-2.4-.9-3.2l.2-.3Z"/>
    </g>
    <polygon class="st0" points="365.4 247.9 365.4 238.7 297.9 238.7 297.9 250.8 344.2 250.8 297.1 300.5 297.1 309.6 366.9 309.6 366.9 297.5 318.5 297.5 365.4 247.9"/>
    <polygon class="st0" points="409.3 279.6 448.9 279.6 448.9 267.7 409.3 267.7 409.3 250.8 453.8 250.8 453.8 238.7 394.3 238.7 394.3 309.6 455.4 309.6 455.4 297.5 409.3 297.5 409.3 279.6"/>
    <polygon class="st0" points="540 285.9 495.3 238.7 483.4 238.7 483.4 309.6 498.4 309.6 498.4 262.4 543.2 309.6 555.1 309.6 555.1 238.7 540 238.7 540 285.9"/>
    <rect class="st0" x="587" y="238.7" width="15.1" height="70.9"/>
    <polygon class="st0" points="626.6 250.8 653.7 250.8 653.7 309.6 668.6 309.6 668.6 250.8 695.7 250.8 695.7 238.7 626.6 238.7 626.6 250.8"/>
    <polygon class="st0" points="776.9 238.7 776.9 267.6 735.2 267.6 735.2 238.7 720.2 238.7 720.2 309.6 735.2 309.6 735.2 279.7 776.9 279.7 776.9 309.6 791.9 309.6 791.9 238.7 776.9 238.7"/>
  </g>
  <g>
    <polygon class="st1" points="165.7 366.1 136.5 366.1 136.1 255.3 123 249.2 123.1 209.6 144.6 199.4 165.7 209.5 165.7 366.1"/>
    <polygon class="st1" points="103.9 366.1 61.2 366.1 61.2 236.8 93.1 222.6 103.9 227.5 103.9 366.1"/>
    <polygon class="st1" points="227.5 366.1 198.6 366.1 198.6 283.8 184.9 277.6 185.1 232 198.7 224.2 227.5 237.8 227.5 366.1"/>
  </g>
</svg>